<svg xmlns="http://www.w3.org/2000/svg" viewBox="0 0 1440 320"><path fill="#08CEA4" fill-opacity="0.2" d="M0,224L0,128L36.9,128L36.9,0L73.8,0L73.8,64L110.8,64L110.8,288L147.7,288L147.7,160L184.6,160L184.6,32L221.5,32L221.5,288L258.5,288L258.5,224L295.4,224L295.4,32L332.3,32L332.3,288L369.2,288L369.2,256L406.2,256L406.2,224L443.1,224L443.1,64L480,64L480,288L516.9,288L516.9,96L553.8,96L553.8,192L590.8,192L590.8,160L627.7,160L627.7,288L664.6,288L664.6,192L701.5,192L701.5,224L738.5,224L738.5,96L775.4,96L775.4,64L812.3,64L812.3,256L849.2,256L849.2,192L886.2,192L886.2,32L923.1,32L923.1,288L960,288L960,160L996.9,160L996.9,224L1033.8,224L1033.8,288L1070.8,288L1070.8,128L1107.7,128L1107.7,288L1144.6,288L1144.6,288L1181.5,288L1181.5,32L1218.5,32L1218.5,256L1255.4,256L1255.4,192L1292.3,192L1292.3,192L1329.2,192L1329.2,128L1366.2,128L1366.2,128L1403.1,128L1403.1,224L1440,224L1440,320L1403.1,320L1403.1,320L1366.2,320L1366.2,320L1329.2,320L1329.2,320L1292.3,320L1292.3,320L1255.4,320L1255.4,320L1218.5,320L1218.5,320L1181.5,320L1181.5,320L1144.6,320L1144.6,320L1107.7,320L1107.7,320L1070.8,320L1070.8,320L1033.8,320L1033.8,320L996.9,320L996.9,320L960,320L960,320L923.1,320L923.1,320L886.2,320L886.2,320L849.2,320L849.2,320L812.3,320L812.3,320L775.4,320L775.4,320L738.5,320L738.5,320L701.5,320L701.5,320L664.6,320L664.6,320L627.7,320L627.7,320L590.8,320L590.8,320L553.8,320L553.8,320L516.9,320L516.9,320L480,320L480,320L443.1,320L443.1,320L406.2,320L406.2,320L369.2,320L369.2,320L332.3,320L332.3,320L295.4,320L295.4,320L258.5,320L258.5,320L221.5,320L221.5,320L184.6,320L184.6,320L147.7,320L147.7,320L110.8,320L110.8,320L73.8,320L73.8,320L36.9,320L36.9,320L0,320L0,320Z"></path></svg>